<svg width="16" height="16" viewBox="0 0 16 16" fill="none" xmlns="http://www.w3.org/2000/svg">
<path d="M4.05261 15C4.05285 14.7349 4.15836 14.4807 4.34595 14.2933L9.46061 9.17867C9.61542 9.0239 9.73823 8.84015 9.82201 8.63791C9.9058 8.43567 9.94892 8.21891 9.94892 8C9.94892 7.7811 9.9058 7.56433 9.82201 7.3621C9.73823 7.15986 9.61542 6.97611 9.46061 6.82134L4.35261 1.71C4.17045 1.5214 4.06966 1.2688 4.07194 1.0066C4.07422 0.744403 4.17939 0.493591 4.36479 0.308183C4.5502 0.122774 4.80101 0.0176055 5.06321 0.0153271C5.32541 0.0130487 5.57801 0.113843 5.76661 0.296001L10.8746 5.40334C11.5614 6.09151 11.9472 7.02407 11.9472 7.99634C11.9472 8.96861 11.5614 9.90116 10.8746 10.5893L5.75995 15.704C5.62029 15.8437 5.44237 15.939 5.24864 15.9777C5.05491 16.0165 4.85405 15.9969 4.6714 15.9216C4.48876 15.8463 4.33251 15.7186 4.22238 15.5546C4.11226 15.3905 4.05318 15.1976 4.05261 15Z" fill="#ADB5BD"/>
</svg>
